<svg xmlns="http://www.w3.org/2000/svg" xmlns:xlink="http://www.w3.org/1999/xlink" xmlns:inkscape="http://www.inkscape.org/namespaces/inkscape" version="1.1" width="1920" height="1080" viewBox="0 0 1920 1080">
<defs>
<clipPath id="clip_0">
<path transform="matrix(1,0,0,-1,0,1080)" d="M0 1080H1920V0H0Z"/>
</clipPath>
</defs>
<g inkscape:groupmode="layer" inkscape:label="Livello 1">
<g clip-path="url(#clip_0)">
<path transform="matrix(1,0,0,-1,625.7974,497.4322)" d="M0 0C0-32.222 23.893-52.5 51.774-52.5 80.012-52.5 102.461-31.138 102.461 0 102.461 32.222 80.012 52.137 51.774 52.137 23.893 52.137 0 31.138 0 0M-2.897 163.653V64.81C7.601 83.275 36.925 93.414 55.756 93.414 107.893 93.414 146.635 61.551 146.635 0 146.635-58.653 107.171-93.41 54.668-93.41 32.944-93.41 10.861-86.169-2.897-64.807V-89.429H-47.071V163.653Z"/>
<path transform="matrix(1,0,0,-1,0,1080)" d="M848.822 493.139H805.01107V746.224H848.822Z"/>
<path transform="matrix(1,0,0,-1,921.9544,497.4322)" d="M0 0C0-34.035 23.537-54.309 52.862-54.309 122.379-54.309 122.379 53.95 52.862 53.95 23.537 53.95 0 34.035 0 0M105.728 89.069H149.532V-89.429H105.728V-63.36C95.586-84.359 67.708-94.498 47.793-94.861-5.066-95.22-44.167-62.635-44.167 0-44.167 61.551-3.253 93.776 48.881 93.414 72.777 93.414 95.586 82.191 105.728 64.448Z"/>
<path transform="matrix(1,0,0,-1,1240.2052,586.86087)" d="M0 0V93.414C0 120.567-14.842 141.203-43.086 141.203-70.242 141.203-88.707 118.395-88.707 91.238V0H-132.515V178.861H-88.707V154.602C-70.605 172.341-53.947 181.395-31.5 181.395 10.501 181.395 44.174 149.895 44.174 93.773V0Z"/>
<path transform="matrix(1,0,0,-1,1475.544,564.0488)" d="M0 0C-20.64-20.277-42.364-28.241-68.795-28.241-120.57-28.241-163.656 2.897-163.656 66.257-163.656 129.617-120.57 160.755-68.795 160.755-43.445 160.755-23.893 153.514-4.341 134.324L-32.222 104.996C-42.724 114.413-55.756 119.116-68.067 119.116-97.758 119.116-119.482 97.395-119.482 66.257-119.482 32.222-96.311 14.117-68.795 14.117-54.675 14.117-40.552 18.102-29.691 28.962Z"/>
<path transform="matrix(1,0,0,-1,1534.5397,497.7948)" d="M0 0C0-27.156 16.292-52.5 48.515-52.5 80.744-52.5 97.036-27.156 97.036 0 97.036 26.794 78.206 52.862 48.515 52.862 16.658 52.862 0 26.794 0 0M141.569 0C141.569-51.415 106.449-93.051 48.515-93.051-9.413-93.051-44.174-51.415-44.174 0-44.174 51.049-8.692 93.051 48.156 93.051 104.999 93.051 141.569 51.049 141.569 0"/>
<path transform="matrix(1,0,0,-1,651.1373,688.09548)" d="M0 0-6.848-.684C-7.533 5.364-8.444 9.244-12.328 11.87-16.892 14.951-23.283 16.777-30.935 16.777-38.579 16.777-46.566 15.523-51.134 12.782-55.129 10.159-56.383 6.391-56.383 1.369-56.383-13.924 1.369-13.924 1.369-36.295 1.369-42.344-.685-49.308-7.075-53.415-12.894-57.294-22.717-58.552-30.935-58.552-38.806-58.552-50.788-56.383-56.044-52.615H-56.156C-61.405-48.735-64.143-42.344-65.742-35.838L-59.121-34.242C-57.525-40.291-55.926-44.397-52.157-47.139-48.047-49.992-38.122-51.703-30.935-51.703-23.171-51.703-15.411-50.677-10.728-47.708-6.621-44.97-5.479-41.432-5.479-36.295-5.479-20.772-63.231-20.772-63.231 1.369-63.231 7.533-60.832 14.724-54.784 18.492-49.077 22.141-39.033 23.625-30.935 23.625-22.372 23.625-13.924 21.345-8.444 17.577-2.284 13.355-.685 6.506 0 0"/>
<path transform="matrix(1,0,0,-1,826.8262,665.61209)" d="M0 0H25.455 28.878V-6.848H25.455 0V-76.471-79.893H-6.848V-76.471-6.848H-33.896-37.319V0H-33.896-6.848Z"/>
<path transform="matrix(1,0,0,-1,991.5633,669.0346)" d="M0 0V3.423H6.848V0-44.628C7.645-53.303 10.159-62.316 15.293-66.085 20.545-69.965 27.275-71.222 35.726-70.764 44.167-71.222 50.904-69.965 56.156-66.085 61.293-62.316 63.916-53.53 64.6-44.74V0 3.423H71.449V0-44.97C70.764-54.672 67.23-66.427 60.263-71.564 53.645-76.355 44.625-78.07 35.726-77.613 26.817-78.07 17.804-76.355 11.186-71.564 4.226-66.427 .796-54.441 0-44.855Z"/>
<path transform="matrix(1,0,0,-1,1212.5545,738.66018)" d="M0 0H30.359C39.948 .227 47.593 2.169 53.414 7.306 58.894 12.097 60.947 22.599 60.609 33.1 60.947 43.601 58.894 54.099 53.414 58.894 47.593 64.031 39.948 65.969 30.359 66.2H0ZM-6.848-6.848V73.048H30.359C40.86 72.818 50.789 70.195 57.979 64.143 65.285 57.752 67.796 44.055 67.457 33.1 67.796 22.141 65.285 8.444 57.979 2.053 50.789-3.995 40.86-6.621 30.359-6.848Z"/>
<path transform="matrix(1,0,0,-1,1422.8511,669.0346)" d="M0 0V3.423H6.848V0-73.048-76.471H0V-73.048Z"/>
<path transform="matrix(1,0,0,-1,1576.05,705.5603)" d="M0 0C.119-10.728 2.399-22.141 8.336-27.051 14.608-32.3 22.826-34.242 32.988-34.242 43.144-34.242 51.361-32.3 57.64-27.051 63.577-22.141 65.969-10.955 65.969 0 65.969 10.955 63.577 22.141 57.64 27.051 51.361 32.3 43.144 34.242 32.988 34.242 22.826 34.242 14.608 32.3 8.336 27.051 2.399 22.141-.115 10.728 0 0M-6.848 0C-6.964 11.413-3.768 25.794 3.992 32.3 11.413 38.464 21.914 41.09 32.988 41.09 44.055 41.09 54.557 38.464 61.974 32.3 69.734 25.794 72.818 11.643 72.818 0 72.818-11.643 69.734-25.794 61.974-32.3 54.557-38.464 44.055-41.09 32.988-41.09 21.914-41.09 11.413-38.464 3.992-32.3-3.768-25.794-6.73-11.413-6.848 0"/>
<path transform="matrix(1,0,0,-1,468.9525,424.0691)" d="M0 0C0-50.128-40.66-90.787-90.825-90.787H-225.061V90.787H-90.825C-40.66 90.787 0 50.165 0 0"/>
<path transform="matrix(1,0,0,-1,483.0591,650.1667)" d="M0 0C0-53.272-43.208-96.48-96.518-96.48H-239.168V96.48H-96.518C-43.208 96.48 0 53.309 0 0"/>
</g>
</g>
</svg>
